<?xml version="1.0" encoding="utf-8"?>
<!-- Generator: Adobe Illustrator 28.2.0, SVG Export Plug-In . SVG Version: 6.00 Build 0)  -->
<svg version="1.1" id="Layer_1" xmlns="http://www.w3.org/2000/svg" xmlns:xlink="http://www.w3.org/1999/xlink" x="0px" y="0px"
	 viewBox="0 0 48 48" style="enable-background:new 0 0 48 48;" xml:space="preserve">
<style type="text/css">
	.st0{fill:#FFA000;}
</style>
<path class="st0" d="M24,2.3c12,0,21.6,9.7,21.6,21.8c0,11.9-9.8,21.6-21.8,21.6C12,45.6,2.3,35.9,2.3,24C2.3,12,12.1,2.3,24,2.3z
	 M4,24C4,35,13,44,24,44c11,0,20-8.9,20-19.9c0-11-8.9-20-20-20C13,4,4,13,4,24z"/>
<path class="st0" d="M20.3,24c0-2,1.6-3.7,3.7-3.7c2,0,3.7,1.6,3.7,3.7c0,2-1.6,3.7-3.7,3.7C22,27.7,20.3,26,20.3,24z M18.3,24
	c0,3.1,2.5,5.7,5.7,5.6c3.1,0,5.7-2.5,5.7-5.7c0-3.1-2.5-5.7-5.7-5.7C20.9,18.3,18.3,20.9,18.3,24L18.3,24z M28.6,18.1
	c0,0.7,0.6,1.3,1.3,1.3c0.7,0,1.3-0.6,1.3-1.3c0-0.7-0.6-1.3-1.3-1.3C29.1,16.8,28.5,17.4,28.6,18.1z M19.6,33c-1.1,0-1.7-0.2-2-0.4
	c-0.5-0.2-0.9-0.4-1.3-0.8c-0.4-0.4-0.6-0.8-0.8-1.3c-0.2-0.4-0.3-1-0.4-2C15,27.3,15,27,15,24c0-2.9,0-3.3,0.1-4.5
	c0-1.1,0.2-1.7,0.4-2c0.2-0.5,0.4-0.9,0.8-1.3c0.4-0.4,0.8-0.6,1.3-0.8c0.4-0.2,1-0.3,2-0.4C20.7,15,21,15,24,15
	c2.9,0,3.3,0,4.5,0.1c1.1,0,1.7,0.2,2,0.4c0.5,0.2,0.9,0.4,1.3,0.8c0.4,0.4,0.6,0.8,0.8,1.3c0.2,0.4,0.3,1,0.4,2
	C33,20.7,33,21,33,24c0,2.9,0,3.3-0.1,4.5c0,1.1-0.2,1.7-0.4,2c-0.2,0.5-0.4,0.9-0.8,1.3c-0.4,0.4-0.8,0.6-1.3,0.8
	c-0.4,0.2-1,0.3-2,0.4C27.3,33,27,33,24,33C21.1,33,20.7,33,19.6,33L19.6,33z M19.4,13c-1.2,0.1-2,0.2-2.7,0.5
	c-0.7,0.3-1.3,0.7-2,1.3c-0.6,0.6-1,1.2-1.3,2c-0.3,0.7-0.5,1.5-0.5,2.7C13,20.6,13,21,13,24c0,3,0,3.4,0.1,4.5
	c0.1,1.2,0.2,2,0.5,2.7c0.3,0.7,0.7,1.3,1.3,2c0.6,0.6,1.2,1,2,1.3c0.7,0.3,1.5,0.5,2.7,0.5C20.7,35,21,35,24,35c3,0,3.4,0,4.5-0.1
	c1.2-0.1,2-0.2,2.7-0.5c0.7-0.3,1.3-0.7,2-1.3c0.6-0.6,1-1.2,1.3-2c0.3-0.7,0.5-1.5,0.5-2.7C35,27.3,35,27,35,24c0-3,0-3.4-0.1-4.5
	c-0.1-1.2-0.2-2-0.5-2.7c-0.3-0.7-0.7-1.3-1.3-2c-0.6-0.6-1.2-1-2-1.3c-0.7-0.3-1.5-0.5-2.7-0.5C27.3,13,27,13,24,13
	C21,13,20.6,13,19.4,13L19.4,13z"/>
</svg>
