<?xml version="1.0" encoding="utf-8"?>
<!-- Generator: Adobe Illustrator 28.2.0, SVG Export Plug-In . SVG Version: 6.00 Build 0)  -->
<svg version="1.1" id="Layer_1" xmlns="http://www.w3.org/2000/svg" xmlns:xlink="http://www.w3.org/1999/xlink" x="0px" y="0px"
	 viewBox="0 0 48 48" style="enable-background:new 0 0 48 48;" xml:space="preserve">
<style type="text/css">
	.st0{fill:#FFA000;}
</style>
<path class="st0" d="M24,2.3c12,0,21.6,9.7,21.6,21.8c0,11.9-9.8,21.6-21.8,21.6C12,45.6,2.3,35.9,2.3,24C2.3,12,12.1,2.3,24,2.3z
	 M4,24C4,35,13,44,24,44c11,0,20-8.9,20-19.9c0-11-8.9-20-20-20C13,4,4,13,4,24z"/>
<g>
	<path class="st0" d="M34.4,13c-2.7,3.2-5.3,6.3-7.9,9.4c3.1,4.2,6.1,8.4,9.3,12.7c-1.2,0-2.4,0-3.5,0c-1.1,0-2.1,0-3.2,0
		c-0.4,0-0.6-0.1-0.9-0.4c-1.8-2.4-3.5-4.8-5.3-7.2c-1.1,1.4-2.3,2.7-3.4,4c-0.9,1.1-1.9,2.2-2.8,3.3c-0.2,0.2-0.5,0.3-0.8,0.3
		c-1,0-2,0-3.2,0c2.8-3.4,5.6-6.6,8.4-10c-3-4-5.9-8-8.9-12.1c0.4,0,0.7,0,1,0c2,0,4,0,6,0c0.4,0,0.6,0.1,0.8,0.4
		c1.6,2.2,3.2,4.4,4.8,6.6c0.8-1,1.6-1.9,2.4-2.9c1.1-1.3,2.2-2.6,3.3-3.9c0.1-0.2,0.4-0.3,0.6-0.3C32.2,13,33.3,13,34.4,13z
		 M16.5,15.1c1.9,2.6,3.7,5,5.5,7.5c2.4,3.2,4.8,6.4,7.1,9.6c0.2,0.2,0.4,0.5,0.7,0.5c0.5,0.1,1.1,0,1.7,0c-1.7-2.3-3.4-4.6-5.1-6.9
		c-2.5-3.4-5-6.9-7.6-10.3c-0.1-0.2-0.4-0.4-0.5-0.4C17.8,15.1,17.2,15.1,16.5,15.1z"/>
</g>
</svg>
