<?xml version="1.0" encoding="utf-8"?>
<!-- Generator: Adobe Illustrator 28.2.0, SVG Export Plug-In . SVG Version: 6.00 Build 0)  -->
<svg version="1.1" id="Layer_1" xmlns="http://www.w3.org/2000/svg" xmlns:xlink="http://www.w3.org/1999/xlink" x="0px" y="0px"
	 viewBox="0 0 48 48" style="enable-background:new 0 0 48 48;" xml:space="preserve">
<style type="text/css">
	.st0{fill:#FFA000;}
</style>
<g>
	<path class="st0" d="M35,25.6c-0.1-2.1-1-3.9-3-4.9c-2.3-1.1-4.4-0.7-6.4,0.8c-0.4,0.3-0.6,0.6-1,1c0-0.7,0-1.4,0-2
		c-1.4,0-2.8,0-4.1,0c0,4.9,0,9.8,0,14.6c1.5,0,2.9,0,4.4,0c0-0.1,0-0.2,0-0.3c0-2.5,0-4.9,0-7.4c0-1.8,1.2-3.1,3-3.1
		c1.1,0,2.1,0.5,2.5,1.5c0.2,0.4,0.2,0.9,0.2,1.4c0,2.4,0,4.9,0,7.3c0,0.2,0,0.4,0,0.6c1.5,0,3,0,4.4,0c0-0.1,0-0.2,0-0.3
		C35,31.7,35.1,28.6,35,25.6z"/>
	<path class="st0" d="M13.3,35c1.5,0,3,0,4.5,0c0-4.9,0-9.8,0-14.6c-1.5,0-3,0-4.5,0C13.3,25.3,13.3,30.1,13.3,35z"/>
	<path class="st0" d="M15.6,13c-1.4,0-2.6,1.2-2.6,2.6c0,1.5,1.1,2.6,2.6,2.6c1.5,0,2.6-1.1,2.6-2.6C18.2,14.1,17,13,15.6,13z"/>
</g>
<path class="st0" d="M24,2.3c12,0,21.6,9.7,21.6,21.8c0,11.9-9.8,21.6-21.8,21.6C12,45.6,2.3,35.9,2.3,24C2.3,12,12.1,2.3,24,2.3z
	 M4,24C4,35,13,44,24,44c11,0,20-8.9,20-19.9c0-11-8.9-20-20-20C13,4,4,13,4,24z"/>
</svg>
