<?xml version="1.0" encoding="utf-8"?>
<!-- Generator: Adobe Illustrator 28.2.0, SVG Export Plug-In . SVG Version: 6.00 Build 0)  -->
<svg version="1.1" id="Layer_1" xmlns="http://www.w3.org/2000/svg" xmlns:xlink="http://www.w3.org/1999/xlink" x="0px" y="0px"
	 viewBox="0 0 48 48" style="enable-background:new 0 0 48 48;" xml:space="preserve">
<style type="text/css">
	.st0{fill:#000223;}
	.st1{fill:#7C521B;}
	.st2{fill:#FFA000;}
	.st3{fill:#FFFFFF;}
</style>
<circle class="st0" cx="24" cy="24" r="24"/>
<g>
	<g>
		<g>
			<path class="st1" d="M27.7,25.7l10.4-4.1L31,18.9c-0.4,0.7-0.9,1.3-1.5,1.8c-0.2,0.1-0.2,0.3-0.2,0.5c0,0.9-0.4,1.8-1,2.4
				c-0.5,0.5-0.7,1.2-0.6,1.9C27.7,25.6,27.7,25.7,27.7,25.7z"/>
			<path class="st1" d="M20.3,25.6c0.1-0.7-0.1-1.4-0.6-1.9l-0.1-0.1c-0.6-0.6-1-1.4-0.9-2.3c0-0.2-0.1-0.4-0.2-0.5
				c-0.6-0.5-1.1-1.2-1.5-1.9l-7.1,2.8l10.4,4.1C20.3,25.7,20.3,25.6,20.3,25.6z"/>
		</g>
	</g>
	<path class="st2" d="M25.2,9.1c-0.5,0-1.1,0.1-1.5,0.2c0.1,0,0.2,0,0.3,0h0.1c1.4,0,2.8,0.6,3.7,1.6s1.6,2.3,1.6,3.7
		c0,1.5-0.6,3-1.7,4.1c-0.6,0.6-1,1.3-1.1,2.1c0,0.2,0,0.3,0,0.5c0,0.3-0.2,0.5-0.5,0.5H22c-0.3,0-0.5-0.2-0.5-0.5
		c0-1-0.4-1.9-1.1-2.6c-1.1-1-1.7-2.5-1.7-4s0.6-2.8,1.6-3.8c0.1-0.1,0.1-0.1,0.2-0.2c0.4-0.3,0.4-0.9,0-1.2l0,0
		c-0.3-0.3-0.8-0.3-1.2,0c-0.1,0.1-0.2,0.1-0.2,0.2c-1.4,1.4-2.1,3.2-2.1,5.1c0,2,0.8,3.9,2.3,5.2c0.4,0.3,0.6,0.8,0.6,1.3
		c0,1.3,1,2.3,2.3,2.3h4c1.2,0,2.3-1,2.3-2.3c0-0.5,0.2-1,0.6-1.3c0.6-0.6,1.2-1.3,1.6-2.1l0,0c0.4-0.9,0.7-1.9,0.7-2.9
		C31.1,11.7,28.4,9.1,25.2,9.1z"/>
	<path class="st3" d="M25.9,25.1h-3.7c-0.5,0-0.9,0.4-0.9,0.9s0.4,0.9,0.9,0.9h3.7c0.5,0,0.9-0.4,0.9-0.9
		C26.7,25.5,26.3,25.1,25.9,25.1z"/>
	<rect x="21.1" y="8" class="st3" width="1.2" height="1.2"/>
	<rect x="22.8" y="6.9" class="st3" width="0.7" height="0.7"/>
	<polygon class="st2" points="22.9,28.5 7.5,22.6 5.4,26.2 20.7,32.2 	"/>
	<polygon class="st2" points="42.6,26.2 40.5,22.6 25.1,28.5 27.3,32.2 	"/>
	<g>
		<g>
			<path class="st2" d="M20.4,33.6l-12.7-5V33l15.7,6.1v-4.4V31l-1.2,2C21.7,33.6,21,33.8,20.4,33.6z"/>
			<path class="st2" d="M27.6,33.6c-0.7,0.3-1.4,0-1.8-0.6l-1.2-2v3.7v4.4L40.4,33v-4.4L27.6,33.6z"/>
		</g>
	</g>
</g>
</svg>
